<?xml version="1.0" encoding="UTF-8"?>
<svg height="128px" viewBox="0 0 128 128" width="128px" xmlns="http://www.w3.org/2000/svg">
    <path d="m 110.878906 64 c 0 25.890625 -20.988281 46.878906 -46.878906 46.878906 s -46.878906 -20.988281 -46.878906 -46.878906 s 20.988281 -46.875 46.878906 -46.875 s 46.878906 20.984375 46.878906 46.875 z m 0 0" fill="#1c71d8" fill-rule="evenodd" stroke="#1c71d8" stroke-linecap="round" stroke-width="26.242001"/>
    <path d="m 3.2968767023 64.78907588301 c -0.48437521313 -20.71094683741 22.11719749877 -35.25782838117 41.95705016523 -23.89063576312 c 6.53515919589 3.74609543293 12.08203670503 9.29297294207 18.05078939371 15.35156942903 c 0.26953134767 0.27343759977 0.39453141485 0.24609383508 0.64843780129 -0.0078125042 c 9.33203541589 -9.40625425294 22.84376024771 -23.75001073472 41.76564381237 -18.17188320879 c 7.96484732268 2.35156357503 13.50000607553 7.51562837845 16.33594486368 15.30469440384 c 9.48828549985 26.05860548949 -17.73047676875 47.63283394647 -41.07423728516 33.32814003286 c -5.8867213946 -3.60547040453 -10.9726612032 -8.58203515436 -16.98047641288 -14.70313162773 c -0.32031262496 -0.32812517633 -0.46484395263 -0.28125015114 -0.7578128129 0.0156250084 c -6.82812810333 6.88281558555 -14.17969389361 14.3671939472 -23.25782297022 17.50000784773 c -18.47266457326 6.3789091591 -36.17970382941 -4.628908313 -36.68751655514 -24.72657361801 z m 11.55859897091 -0.39843766695 c 0.58984401981 11.96484914206 9.79297316359 17.54297662082 19.59766508348 15.42188191964 c 8.47656630051 -1.83593829793 15.58594450781 -9.28906668997 21.64063474267 -15.51172571792 c 0.20312510916 -0.21093761336 0.08984379828 -0.29687515954 -0.05078127729 -0.42578143164 c -5.2617211059 -4.91015846414 -10.3945359397 -10.90625491752 -16.867195102 -13.99219384002 c -12.54688065767 -5.98047144498 -24.36329221995 2.78906376297 -24.32032344686 14.50781906995 z m 97.54301267809 -0.50781272572 c -0.37109390225 -11.56250522301 -9.49219175195 -17.86328929295 -20.00391525462 -15.39844445422 c -8.27344123852 1.94140710461 -15.33985067273 9.35937922775 -21.21094705893 15.39063195002 c -0.20703131409 0.21093756618 -0.12890631927 0.30859386866 0.03906252099 0.46484395263 c 7.34375333325 6.85156556876 16.00781973452 17.66797668799 27.71094998593 15.69531956659 c 7.79687852959 -1.31250061099 13.48438106713 -8.10156614615 13.46484980663 -16.15235101502 z m 0 0" fill="#ffffff" stroke="#ffffff" stroke-width="0.0471724"/>
</svg>
